<svg width="65" height="46" viewBox="0 0 65 46" fill="none" xmlns="http://www.w3.org/2000/svg">
<path d="M9.72461 45.2474V8.6913L9.72462 0H25.4055V8.6913H18.8411V45.2474H9.72461Z" fill="white"/>
<path d="M31.5265 45.2474L26.6502 0H35.5547L38.0988 28.5496L40.643 0H49.1234L51.5615 28.5496L53.9996 0H63.0101L58.0279 45.2474H47.1093L44.8302 23.4402L42.6571 45.2474H31.5265Z" fill="white"/>
<path d="M31.5265 45.2474L26.6502 0H35.5547L38.0988 28.5496L40.643 0H49.1234L51.5615 28.5496L53.9996 0H63.0101L58.0279 45.2474H47.1093L44.8302 23.4402L42.6571 45.2474H31.5265Z" fill="white"/>
<path d="M65.001 1.86941L62.9984 0.00134277L62.1057 7.0942L59.5481 30.5339L58.0039 44.7223V45.2496L60.658 43.2843L65.001 1.86941Z" fill="white"/>
<path d="M44.6491 43.4816L42.6602 45.2474L44.6842 23.4397H44.9255L45.3598 27.9455L45.5806 29.6232L44.6491 43.4816Z" fill="white"/>
<path d="M37.6125 2.12376L35.5254 0.00134277L37.9286 28.5686H38.2182L39.1278 17.9752L37.6125 2.12376Z" fill="white"/>
<path d="M51.1558 2.12376L49.1172 0.00134277L51.3934 28.3289L51.4416 28.5686H51.7312L51.6829 28.4248L52.6206 17.4479L51.1558 2.12376Z" fill="white"/>
<path d="M38.3001 28.5674L40.828 0.2H48.9419L51.3644 28.5666H51.7629L54.1854 0.2H62.789L57.8508 45.0474H47.2916L45.0312 23.4194L44.6333 23.4203L42.4781 45.0474H31.7082L26.8751 0.2H35.3738L37.9017 28.5674H38.3001Z" fill="#0A0A13" stroke="white" stroke-width="0.4"/>
<ellipse cx="4.36836" cy="4.3429" rx="4.36836" ry="4.34131" fill="white"/>
</svg>
